<svg width="118" height="23" fill="none" xmlns="http://www.w3.org/2000/svg"><path d="M1.664 20.367a8.417 8.417 0 0 1-1.4-5.235V7.566a8.55 8.55 0 0 1 1.38-5.286C2.571 1.077 4.154.478 6.394.485c2.24.007 3.757.535 4.55 1.584a6.82 6.82 0 0 1 1.33 4.529v1.775h-4.14V6.447a10.174 10.174 0 0 0-.13-1.514 1.7 1.7 0 0 0-.47-.958 1.556 1.556 0 0 0-1.15-.373c-.297-.045-.6.004-.868.14-.269.135-.49.35-.632.616a5.562 5.562 0 0 0-.34 2.22v9.603c-.045.76.088 1.52.39 2.22.144.251.359.455.616.586.258.13.548.183.834.15.282.04.569-.01.82-.145.252-.134.455-.345.58-.602.242-.71.347-1.46.31-2.21v-2.017h4.14v1.745a7.361 7.361 0 0 1-1.23 4.65c-.88 1.11-2.4 1.655-4.56 1.655-2.16 0-3.85-.605-4.78-1.846ZM17.915.777h4.74l4 21.184h-3.94l-.71-4.68h-3.32l-.8 4.65h-4L17.915.777Zm3.65 13.84-1.26-8.513-1.25 8.513h2.51ZM29.726 3.965h-3.24V.777h10.72v3.188h-3.2v17.966h-4.29l.01-17.966Z" fill="#111"/><path d="M45.617.777h8.13v2.2h-5.2v6.99h4.22v2.088h-4.22v7.757h5.25v2.119h-8.18V.777ZM56.157.777h2l6 14.052V.777h2.44v21.184h-1.87l-6-14.445V21.93h-2.48L56.157.777ZM69.828.777h8.12v2.2h-5.2v6.99h4.26v2.088h-4.22v7.757h5.22v2.119h-8.18V.777ZM80.358.777h4.22a6.956 6.956 0 0 1 4.67 1.322c1 .877 1.49 2.31 1.49 4.297 0 2.69-.863 4.334-2.59 4.933l3 10.602h-2.84l-2.75-9.926h-2.27v9.926h-2.93V.777Zm4 9.08a3.846 3.846 0 0 0 2.7-.768 3.611 3.611 0 0 0 .82-2.733 5.95 5.95 0 0 0-.29-2.018 1.91 1.91 0 0 0-1-1.09 4.724 4.724 0 0 0-2.05-.352h-1.29v7l1.11-.04ZM94.679 20.367a9.396 9.396 0 0 1-1.27-5.397V7.91a13.73 13.73 0 0 1 .5-4.036 4.517 4.517 0 0 1 1.74-2.43 5.87 5.87 0 0 1 3.36-.848 5.216 5.216 0 0 1 2.253.28c.722.258 1.38.672 1.927 1.213a7.108 7.108 0 0 1 1.28 4.67v.787h-2.75V6.89a11.69 11.69 0 0 0-.18-2.34 2.019 2.019 0 0 0-.76-1.24 2.98 2.98 0 0 0-1.72-.414 2.505 2.505 0 0 0-1.81.565 2.59 2.59 0 0 0-.77 1.493 15.06 15.06 0 0 0-.17 2.511v7.858a7.634 7.634 0 0 0 .59 3.49 2.809 2.809 0 0 0 4.47-.09 8.253 8.253 0 0 0 .61-3.682v-1.493h-2.66V11.46h5.3v10.47h-1.81l-.29-2.43a3.723 3.723 0 0 1-1.4 2.002 3.666 3.666 0 0 1-2.33.691 4.623 4.623 0 0 1-2.288-.38 4.667 4.667 0 0 1-1.822-1.446ZM110.699 14.466 106.169.777h2.72l3.21 10.209 3.16-10.209h2.75l-4.5 13.689v7.465h-2.8l-.01-7.465Z" fill="#444"/></svg>