<svg width="148" height="202" viewBox="0 0 148 202" fill="none" xmlns="http://www.w3.org/2000/svg">
<g clip-path="url(#clip0_2403_757)" filter="url(#filter0_d_2403_757)">
<path d="M113.68 0H112.92C111.636 0.725875 110.614 1.83883 110 3.18C108.875 5.34423 108.009 7.63331 107.42 10C107.294 10.7116 106.934 11.3611 106.398 11.8462C105.863 12.3313 105.181 12.6246 104.46 12.68C102.256 13.06 100.167 13.9386 98.3546 15.2489C96.5418 16.5591 95.0523 18.2663 94 20.24C92.5532 22.8026 91.3158 25.478 90.3 28.24C87.46 35.6 85.28 43.2 82.6 50.62C81.34 54 81.28 54 77.48 54C72.94 54 73.26 53.3 73.2 58.3C73.2 59.88 73.68 60.68 75.36 60.6C75.88 60.6 76.66 60.34 76.86 61.02C77.06 61.7 76.38 62 75.98 62.4C73.6086 64.8073 70.6075 66.4984 67.32 67.28C63.52 68.3 59.64 69.1 55.94 70.34C46.44 73.52 37.66 77.96 30.82 85.48C26.8206 90.1507 23.6177 95.4483 21.34 101.16C14 118.44 10.44 136.64 7.68 155.02C6.38 163.64 5.46 172.3 4.76 181.02C4.4 185.3 4 189.64 4 194H70.66C70.7707 193.12 70.6102 192.227 70.2 191.44C69.5589 189.844 68.5171 188.441 67.1753 187.365C65.8335 186.29 64.237 185.578 62.54 185.3C61.14 184.98 60.98 184.56 61.84 183.46C63.2427 181.588 64.318 179.492 65.02 177.26C68.28 167.64 69.54 157.6 71.12 147.66C72.0125 140.068 74.3477 132.716 78 126C80.8488 121.057 84.6486 116.727 89.18 113.26C90.84 112 90.9 112 91.18 114.14C91.38 115.56 91.42 117.02 91.52 118.46C92.1202 127.909 91.9998 137.39 91.16 146.82C90.4048 154.13 90.3044 161.492 90.86 168.82C91.6551 177.327 93.1739 185.751 95.4 194H122C121.653 191.835 120.656 189.826 119.142 188.241C117.627 186.655 115.667 185.567 113.52 185.12C111.013 184.722 108.45 184.858 106 185.52C104.8 185.8 104.3 185.52 104.2 184.22C103.373 173.632 104.046 162.98 106.2 152.58C108.868 140.574 110.91 128.438 112.32 116.22C112.845 111.286 114.398 106.517 116.88 102.22C119.26 97.98 121.34 93.58 123.68 89.32C124.609 87.771 125.168 86.0286 125.314 84.2282C125.46 82.4279 125.188 80.6182 124.52 78.94C123.98 77.52 123.46 76.08 122.8 74.72C120.8 70.82 118.8 66.96 116.96 63.02C115.98 61.02 116.2 60.78 118.38 60.72C121.64 60.72 121.64 60.72 121.7 57.44C121.7 57 121.7 56.56 121.7 56.12C121.7 54.74 121.18 53.98 119.7 54.12C118.7 54.12 117.7 54.12 116.66 54.12C115.28 54.12 114.88 53.54 115.22 52.12C115.895 49.8116 117.222 47.7473 119.042 46.1755C120.862 44.6037 123.098 43.5912 125.48 43.26C129.911 42.8758 134.376 43.1657 138.72 44.12C139.221 44.2779 139.765 44.2322 140.232 43.9927C140.7 43.7531 141.055 43.3391 141.22 42.84C142.02 40.84 142.9 38.84 143.8 36.84C144.004 36.4852 144.094 36.0763 144.058 35.6686C144.023 35.2608 143.863 34.8739 143.6 34.56C137.2 26.44 130.26 18.86 120.8 14C120.343 13.8033 119.942 13.4952 119.635 13.1039C119.328 12.7127 119.123 12.2506 119.04 11.76C118.505 8.90102 117.653 6.11051 116.5 3.44C115.959 2.01723 114.969 0.809563 113.68 0V0Z" fill="black"/>
</g>
<defs>
<filter id="filter0_d_2403_757" x="0" y="0" width="148" height="202" filterUnits="userSpaceOnUse" color-interpolation-filters="sRGB">
<feFlood flood-opacity="0" result="BackgroundImageFix"/>
<feColorMatrix in="SourceAlpha" type="matrix" values="0 0 0 0 0 0 0 0 0 0 0 0 0 0 0 0 0 0 127 0" result="hardAlpha"/>
<feOffset dy="4"/>
<feGaussianBlur stdDeviation="2"/>
<feComposite in2="hardAlpha" operator="out"/>
<feColorMatrix type="matrix" values="0 0 0 0 0 0 0 0 0 0 0 0 0 0 0 0 0 0 0.25 0"/>
<feBlend mode="normal" in2="BackgroundImageFix" result="effect1_dropShadow_2403_757"/>
<feBlend mode="normal" in="SourceGraphic" in2="effect1_dropShadow_2403_757" result="shape"/>
</filter>
<clipPath id="clip0_2403_757">
<rect width="140" height="194" fill="white" transform="translate(4)"/>
</clipPath>
</defs>
</svg>
